<?xml version="1.0" standalone="no"?>
<!DOCTYPE svg PUBLIC "-//W3C//DTD SVG 20010904//EN"
 "http://www.w3.org/TR/2001/REC-SVG-20010904/DTD/svg10.dtd">
<svg version="1.0" xmlns="http://www.w3.org/2000/svg"
 width="512.000000pt" height="512.000000pt" viewBox="0 0 512.000000 512.000000"
 preserveAspectRatio="xMidYMid meet">

<g transform="translate(0.000000,512.000000) scale(0.100000,-0.100000)"
fill="#000000" stroke="none">
<path d="M2100 4943 c-23 -98 -45 -181 -49 -185 -4 -4 -54 -21 -111 -37 -146
-41 -314 -110 -454 -187 l-119 -65 -156 94 -156 95 -296 -295 -297 -295 95
-158 94 -157 -65 -119 c-77 -140 -146 -308 -187 -454 -16 -57 -33 -107 -37
-111 -4 -4 -87 -26 -184 -49 l-178 -43 0 -417 0 -417 178 -43 c97 -23 180 -45
184 -49 4 -4 21 -54 37 -111 41 -146 110 -314 187 -454 l65 -119 -94 -157 -95
-158 297 -295 296 -295 157 95 157 95 98 -56 c153 -87 304 -147 543 -218 l45
-13 43 -183 44 -182 418 0 418 0 44 182 43 183 45 13 c240 71 399 135 552 222
l90 51 158 -94 158 -95 295 297 295 296 -95 157 -95 157 56 98 c87 153 146
301 218 543 l13 44 183 44 182 44 0 418 0 418 -182 44 -183 44 -13 44 c-72
242 -131 390 -218 543 l-56 98 95 157 95 157 -295 296 -295 297 -158 -95 -158
-94 -90 51 c-153 87 -322 155 -552 222 l-45 13 -43 183 -44 182 -418 0 -418 0
-42 -177z m739 -757 c343 -63 640 -217 881 -456 247 -246 401 -542 467 -893
23 -128 23 -426 0 -554 -118 -633 -564 -1132 -1170 -1307 -163 -47 -258 -60
-457 -60 -256 0 -421 33 -646 128 -521 220 -885 689 -986 1266 -16 97 -16 403
0 500 62 356 216 662 457 905 270 272 605 436 992 485 96 12 362 4 462 -14z"/>
<path d="M2123 3008 c-321 -487 -583 -888 -583 -892 0 -3 196 -6 435 -6 l435
0 2 -442 3 -441 583 885 c320 487 582 888 582 892 0 3 -196 6 -435 6 l-435 0
-2 442 -3 441 -582 -885z"/>
</g>
</svg>
