<?xml version="1.0" standalone="no"?>
<!DOCTYPE svg PUBLIC "-//W3C//DTD SVG 20010904//EN"
 "http://www.w3.org/TR/2001/REC-SVG-20010904/DTD/svg10.dtd">
<svg version="1.0" xmlns="http://www.w3.org/2000/svg"
 width="983.000000pt" height="857.000000pt" viewBox="0 0 983.000000 857.000000"
 preserveAspectRatio="xMidYMid meet">

<g transform="translate(0.000000,857.000000) scale(0.100000,-0.100000)"
fill="#000000" stroke="none">
<path d="M2474 8556 c-16 -12 -19 -26 -19 -83 1 -95 48 -227 159 -448 89 -177
254 -465 266 -465 4 0 37 25 75 54 37 30 93 65 124 77 92 36 92 35 31 141
-226 394 -392 628 -504 709 -44 32 -99 38 -132 15z"/>
<path d="M7263 8528 c-62 -53 -142 -143 -214 -240 -54 -73 -283 -446 -328
-536 l-22 -42 28 -12 c96 -39 153 -69 191 -101 24 -21 52 -37 62 -37 22 0 65
66 173 265 229 421 304 649 237 720 -35 37 -70 32 -127 -17z"/>
<path d="M3130 7601 c-178 -58 -258 -239 -179 -406 51 -108 145 -169 264 -169
160 -1 272 107 283 269 10 171 -107 302 -278 311 -36 2 -76 0 -90 -5z m159
-125 c106 -55 130 -195 49 -277 -92 -91 -224 -71 -284 43 -21 41 -17 116 9
163 42 74 153 108 226 71z"/>
<path d="M6553 7573 c-61 -21 -136 -92 -163 -155 -34 -77 -33 -175 2 -243 68
-131 211 -192 352 -151 80 24 158 99 180 175 22 74 20 175 -3 226 -26 59 -102
130 -158 149 -57 20 -154 19 -210 -1z m211 -143 c88 -82 96 -158 25 -235 -48
-52 -93 -69 -161 -63 -135 13 -194 171 -106 284 29 36 73 53 141 54 53 0 61
-3 101 -40z"/>
<path d="M3580 7488 c1 -7 7 -40 15 -73 19 -78 19 -133 -1 -207 -8 -33 -13
-62 -10 -65 7 -7 611 16 731 28 270 26 370 79 331 174 -35 83 -234 124 -676
140 -91 3 -216 8 -277 11 -91 5 -113 3 -113 -8z"/>
<path d="M6095 7473 c-244 -6 -538 -24 -630 -38 -193 -29 -255 -61 -255 -134
0 -115 191 -153 884 -177 190 -6 198 -6 192 12 -29 97 -33 192 -12 274 8 30
12 58 10 62 -3 5 -24 7 -47 6 -23 -1 -87 -3 -142 -5z"/>
<path d="M2866 7058 c-52 -83 -219 -386 -276 -503 -85 -173 -130 -300 -137
-385 -5 -57 -2 -69 17 -92 90 -114 296 118 639 720 29 51 51 98 48 105 -3 7
-29 20 -58 30 -51 16 -85 38 -178 115 l-40 33 -15 -23z"/>
<path d="M6940 7029 c-52 -46 -128 -93 -183 -114 -26 -10 -50 -22 -53 -27 -10
-16 272 -476 384 -628 69 -93 148 -177 184 -196 41 -21 101 -18 124 7 26 29
23 114 -6 199 -32 94 -139 322 -232 495 -80 149 -169 295 -178 295 -3 -1 -21
-15 -40 -31z"/>
<path d="M3448 6869 c-54 -27 -98 -52 -98 -56 0 -9 480 -957 660 -1302 120
-229 151 -297 143 -310 -6 -9 -39 -36 -74 -59 -74 -51 -169 -140 -209 -197
-32 -47 -55 -143 -70 -294 -5 -57 -10 -107 -10 -112 0 -5 -44 -9 -97 -9 -131
0 -942 -38 -1178 -55 -38 -3 -169 -12 -290 -21 -121 -9 -223 -19 -226 -22 -4
-4 -10 -55 -14 -114 l-7 -106 64 -6 c201 -18 1506 -86 1660 -86 l86 0 7 -67
c12 -134 36 -267 55 -310 10 -24 43 -67 72 -96 47 -47 192 -161 235 -185 12
-7 -19 -75 -180 -388 -461 -898 -628 -1237 -615 -1246 27 -19 173 -88 185 -88
7 0 141 192 297 428 240 362 352 535 652 1010 19 28 38 52 44 52 5 0 55 -20
111 -45 219 -99 326 -99 539 0 52 24 100 45 107 47 6 2 90 -121 185 -272 325
-514 710 -1100 788 -1200 l19 -25 45 24 c68 37 136 90 136 105 0 17 -470 956
-649 1298 -78 147 -141 273 -141 280 0 7 30 33 67 58 104 70 227 191 251 249
22 50 46 169 58 285 4 36 12 70 18 74 6 5 139 14 296 21 366 15 764 36 1155
61 265 17 312 22 323 37 13 18 18 213 5 213 -5 0 -138 9 -298 20 -159 10 -535
31 -835 45 -300 13 -568 27 -597 31 -50 5 -53 7 -57 37 -34 210 -48 286 -56
317 -20 74 -48 102 -304 303 l-30 23 152 290 c84 159 263 511 399 782 200 397
246 496 237 510 -15 25 -135 102 -159 102 -12 0 -33 -12 -47 -27 -36 -38 -425
-630 -703 -1068 -125 -198 -231 -364 -235 -368 -4 -5 -67 14 -139 42 -231 88
-272 88 -491 6 -68 -25 -135 -45 -149 -43 -21 2 -47 37 -143 188 -379 592
-818 1259 -841 1278 -8 7 -40 -4 -109 -39z"/>
<path d="M2131 5599 c-72 -29 -188 -160 -326 -369 -90 -136 -285 -465 -285
-480 0 -5 19 -14 42 -21 66 -17 129 -53 186 -104 28 -25 56 -44 61 -40 27 16
293 509 356 659 80 192 96 296 50 341 -26 27 -45 30 -84 14z"/>
<path d="M7620 5543 c-19 -24 -21 -36 -17 -88 12 -125 110 -348 306 -695 60
-107 114 -196 119 -198 5 -1 39 19 74 45 35 27 94 62 131 77 49 21 67 34 67
48 0 38 -135 278 -276 489 -194 293 -337 406 -404 322z"/>
<path d="M1400 4621 c-134 -44 -215 -150 -214 -281 1 -204 195 -339 390 -273
74 25 157 113 179 188 53 182 -75 362 -265 371 -36 2 -76 0 -90 -5z m133 -115
c50 -18 76 -42 98 -91 37 -80 17 -161 -53 -218 -46 -37 -104 -45 -163 -22
-117 44 -149 215 -57 298 23 21 87 46 117 46 11 0 37 -6 58 -13z"/>
<path d="M8269 4585 c-26 -8 -69 -35 -97 -60 -156 -141 -118 -385 77 -482 52
-26 182 -25 236 2 55 27 122 97 148 153 44 98 21 240 -51 315 -69 73 -209 105
-313 72z m158 -110 c50 -21 72 -42 94 -90 51 -110 -16 -232 -138 -251 -85 -13
-174 61 -189 158 -16 99 66 194 169 197 15 1 44 -6 64 -14z"/>
<path d="M700 4503 c-271 -8 -495 -34 -576 -68 -88 -36 -119 -101 -71 -149 73
-73 300 -106 839 -122 l227 -7 -20 64 c-25 78 -23 205 4 257 l18 32 -163 -2
c-90 -1 -206 -3 -258 -5z"/>
<path d="M8742 4434 c16 -47 19 -76 15 -144 -3 -47 -8 -97 -12 -111 -6 -23 -3
-27 25 -33 49 -9 376 -7 545 4 409 27 580 105 472 213 -75 74 -301 108 -823
123 l-242 7 20 -59z"/>
<path d="M1740 4044 c-30 -25 -85 -59 -122 -76 -38 -18 -70 -40 -74 -50 -10
-32 166 -333 329 -563 77 -109 196 -239 239 -261 39 -20 85 -17 109 7 19 19
21 29 16 93 -3 39 -16 103 -28 141 -49 146 -375 756 -404 754 -5 0 -35 -20
-65 -45z"/>
<path d="M8016 4048 c-90 -143 -312 -569 -360 -689 -38 -97 -60 -199 -52 -240
9 -50 46 -83 83 -75 66 15 178 127 299 297 78 111 345 560 338 570 -3 5 -18 9
-34 9 -37 0 -132 51 -196 106 -29 24 -55 44 -58 44 -3 0 -12 -10 -20 -22z"/>
<path d="M2452 2588 c-18 -18 -15 -164 4 -229 29 -98 353 -721 400 -768 2 -2
29 18 61 44 32 26 95 66 141 87 45 21 82 42 82 46 0 11 -174 308 -250 427
-127 200 -256 356 -322 391 -33 17 -100 18 -116 2z"/>
<path d="M7260 2579 c-100 -60 -245 -252 -457 -604 -98 -164 -123 -209 -123
-224 0 -5 26 -19 58 -31 74 -28 116 -54 175 -109 26 -24 49 -42 51 -40 15 18
236 420 284 514 127 255 170 427 122 488 -26 33 -61 35 -110 6z"/>
<path d="M3064 1611 c-122 -62 -164 -136 -164 -290 0 -59 4 -74 31 -114 106
-161 308 -195 444 -75 127 112 138 300 24 418 -54 55 -117 82 -204 87 -63 4
-76 2 -131 -26z m206 -110 c55 -29 92 -89 92 -148 0 -102 -72 -175 -173 -175
-60 0 -103 24 -146 81 -64 83 -32 192 72 249 32 18 116 14 155 -7z"/>
<path d="M6559 1617 c-25 -7 -66 -25 -92 -40 -146 -86 -169 -300 -47 -440 115
-130 336 -122 441 17 60 79 75 170 44 273 -40 135 -209 227 -346 190z m151
-127 c43 -22 84 -70 101 -118 9 -28 7 -40 -19 -95 -36 -79 -75 -109 -147 -115
-145 -12 -242 147 -162 267 15 23 42 51 60 61 42 26 116 26 167 0z"/>
<path d="M3554 1514 c29 -98 34 -205 11 -280 -8 -27 -11 -52 -7 -56 4 -4 131
-3 282 3 613 20 790 57 790 163 0 122 -182 160 -874 182 -200 6 -208 6 -202
-12z"/>
<path d="M5595 1493 c-89 -7 -243 -36 -292 -55 -95 -35 -136 -100 -98 -154 34
-49 174 -84 411 -104 143 -11 636 -31 641 -26 2 2 -4 45 -13 95 -18 91 -16
124 12 229 l6 22 -313 -2 c-173 -1 -332 -3 -354 -5z"/>
<path d="M2826 1063 c-163 -269 -315 -569 -366 -723 -26 -76 -31 -106 -28
-156 7 -112 58 -134 146 -63 110 87 240 263 440 597 142 235 137 222 74 243
-66 21 -130 58 -182 104 -28 25 -52 45 -53 45 -1 0 -15 -21 -31 -47z"/>
<path d="M6899 1045 c-30 -25 -83 -60 -119 -77 -92 -43 -93 -43 -97 -54 -4
-13 240 -421 325 -543 139 -200 237 -291 313 -291 20 0 41 6 47 13 33 41 20
171 -30 297 -62 157 -348 688 -376 698 -5 1 -34 -18 -63 -43z"/>
</g>
</svg>
