<?xml version="1.0" standalone="no"?>
<!DOCTYPE svg PUBLIC "-//W3C//DTD SVG 20010904//EN"
 "http://www.w3.org/TR/2001/REC-SVG-20010904/DTD/svg10.dtd">
<svg version="1.0" xmlns="http://www.w3.org/2000/svg"
 width="200.000000pt" height="200.000000pt" viewBox="0 0 200.000000 200.000000"
 preserveAspectRatio="xMidYMid meet">

<g transform="translate(0.000000,200.000000) scale(0.100000,-0.100000)"
fill="#000000" stroke="none">
<path d="M640 1625 l0 -35 110 0 c103 0 110 -1 110 -20 0 -16 7 -20 30 -20 23
0 30 4 30 20 0 19 7 20 110 20 l110 0 0 35 0 35 -250 0 -250 0 0 -35z"/>
<path d="M623 1420 l-47 -79 -121 -3 -120 -3 0 -305 0 -305 125 -5 125 -5 74
-57 c65 -52 78 -58 120 -58 44 0 48 2 59 34 7 18 21 41 32 51 19 17 20 31 20
237 0 198 2 222 20 258 34 66 113 104 184 86 37 -9 87 -55 107 -101 16 -35 19
-68 19 -251 0 -198 1 -212 20 -229 11 -10 25 -33 32 -52 l12 -34 66 3 65 3 5
120 5 120 73 3 c81 3 79 4 102 -85 l11 -43 88 0 c79 0 90 2 109 23 21 23 22
31 22 260 0 292 6 279 -132 275 l-92 -3 -14 -57 -14 -58 -79 0 -78 0 -3 88 -3
87 -99 3 c-55 1 -105 7 -112 13 -7 6 -31 41 -54 80 l-41 69 -94 0 -95 0 0 -30
c0 -27 3 -30 30 -30 27 0 30 -3 30 -30 l0 -30 -90 0 -90 0 0 30 c0 27 3 30 30
30 27 0 30 3 30 30 l0 30 -94 0 -95 0 -48 -80z"/>
<path d="M122 1033 l3 -308 33 -3 32 -3 0 140 0 141 45 0 c43 0 45 1 45 30 0
29 -2 30 -45 30 l-45 0 0 140 0 140 -35 0 -35 0 2 -307z"/>
<path d="M1003 1200 c-17 -10 -37 -28 -42 -39 -7 -12 -11 -105 -11 -244 l0
-224 -26 -28 c-115 -125 -35 -318 131 -318 57 0 97 18 137 60 67 70 64 187 -5
253 l-27 25 0 230 c0 256 -2 264 -66 291 -44 18 -53 18 -91 -6z m85 -422 l3
-157 30 -31 c27 -27 31 -36 26 -68 -13 -80 -101 -109 -158 -53 -39 39 -39 79
1 124 l30 35 0 149 c0 82 3 153 7 157 4 4 19 6 33 4 l25 -3 3 -157z"/>
</g>
</svg>
