<?xml version="1.0" encoding="utf-8"?>
<svg version="1.0" xmlns="http://www.w3.org/2000/svg" width="237.000000pt" height="228.000000pt" viewBox="0 0 237.000000 228.000000" preserveAspectRatio="xMidYMid meet" xmlns:bx="https://boxy-svg.com"><defs><bx:export><bx:file format="svg" path="Sem título.svg" units="pt" excluded="true"/><bx:file format="svg" path="Sem título 3.svg" units="pt" excluded="true"/><bx:file format="svg" path="Sem título 4.svg" units="pt"/><bx:file format="png" path="Sem título.png"/><bx:file format="svg" href="#object-0" path="Sem título 2.svg" units="pt"/></bx:export></defs><ellipse style="stroke: rgb(49, 74, 123); fill: rgb(255, 255, 255); stroke-width: 7px;" cx="118.111" cy="113.117" rx="114.142" ry="109.462" id="object-0"/><g transform="matrix(0.106998, 0, 0, -0.109849, -4.076953, 243.274551)" fill="#000000" stroke="none" style=""><path d="M596 1890 c-125 -23 -211 -100 -185 -166 l11 -29 10 30 c29 85 137 131 287 123 129 -8 209 -51 230 -124 l8 -29 13 27 c16 33 0 78 -37 108 -65 51 -227 80 -337 60z" style="fill: rgb(49, 74, 123);"/><path d="M1504 1886 c-114 -26 -184 -78 -184 -136 0 -15 7 -33 15 -40 13 -11 15 -8 15 15 0 37 54 87 111 104 67 20 162 25 231 11 111 -22 168 -62 168 -119 1 -34 2 -35 15 -17 42 56 -15 140 -115 170 -78 23 -184 28 -256 12z" style="fill: rgb(49, 74, 123);"/><path d="M664 1725 c-15 -10 -18 -27 -18 -89 0 -46 5 -81 12 -88 8 -8 61 -15 135 -19 67 -3 134 -12 149 -19 26 -12 27 -15 21 -71 -5 -50 -3 -59 10 -59 12 0 19 12 23 41 23 139 211 177 284 57 11 -18 20 -42 20 -53 0 -33 17 -52 32 -37 12 12 6 52 -17 106 -6 14 -5 18 6 14 8 -3 34 1 58 9 24 7 88 13 142 13 123 0 129 5 129 103 0 40 -4 77 -8 83 -26 39 -82 11 -82 -41 0 -19 -3 -36 -7 -38 -5 -3 -60 2 -123 9 -187 23 -485 18 -662 -11 -26 -4 -28 -2 -28 28 0 55 -41 88 -76 62z" style="fill: rgb(49, 74, 123);"/><path d="M1094 1504 c-74 -36 -84 -132 -20 -191 61 -56 150 -34 183 45 21 50 2 107 -46 139 -39 27 -73 29 -117 7z m91 -18 c39 -17 55 -42 55 -86 0 -45 -16 -70 -57 -86 -39 -17 -68 -11 -100 19 -51 46 -36 124 30 152 40 18 32 17 72 1z" style="fill: rgb(49, 74, 123);"/><path d="M1100 1452 c-28 -23 -30 -75 -4 -103 23 -25 78 -25 104 1 34 34 21 120 -14 91 -19 -16 -46 -8 -46 14 0 20 -13 19 -40 -3z" style="fill: rgb(49, 74, 123);"/><path d="M475 1216 c-43 -19 -66 -49 -72 -94 -6 -46 15 -94 53 -118 31 -21 98 -23 142 -5 30 13 32 17 32 62 0 46 -2 49 -25 49 -21 0 -25 -5 -25 -30 0 -62 -92 -61 -114 2 -22 61 36 112 100 89 27 -10 38 -10 49 -1 22 18 19 26 -19 44 -41 19 -80 20 -121 2z" style="fill: rgb(49, 74, 123);"/><path d="M943 1214 c-101 -50 -84 -194 27 -224 81 -22 163 35 163 113 0 97 -99 156 -190 111z m107 -54 c20 -20 27 -74 12 -96 -13 -20 -52 -35 -72 -29 -75 24 -62 145 15 145 14 0 34 -9 45 -20z" style="fill: rgb(49, 74, 123);"/><path d="M680 1105 l0 -116 88 3 c79 3 87 5 87 23 0 17 -8 20 -57 23 l-58 3 0 89 0 90 -30 0 -30 0 0 -115z" style="fill: rgb(49, 74, 123);"/><path d="M1180 1105 l0 -115 88 0 c63 0 94 4 110 16 27 18 29 60 5 86 -14 16 -15 23 -5 38 37 60 -2 90 -115 90 l-83 0 0 -115z m145 50 c0 -16 -8 -21 -42 -23 -40 -3 -43 -2 -43 23 0 25 3 26 43 23 34 -2 42 -7 42 -23z m-1 -71 c9 -3 16 -14 16 -24 0 -21 -19 -30 -66 -30 -31 0 -34 3 -34 30 0 27 3 30 34 30 19 0 41 -3 50 -6z" style="fill: rgb(49, 74, 123);"/><path d="M1511 1198 c-5 -13 -23 -54 -41 -93 -55 -120 -54 -115 -20 -115 23 0 33 6 40 26 9 23 14 25 62 22 44 -2 55 -7 63 -25 7 -17 18 -23 41 -23 l32 0 -51 115 c-50 113 -52 115 -84 115 -25 0 -36 -5 -42 -22z m48 -116 c-17 -2 -33 -2 -35 1 -2 2 3 21 12 43 l17 39 18 -40 18 -40 -30 -3z" style="fill: rgb(49, 74, 123);"/><path d="M1720 1105 l0 -115 85 0 c84 0 85 0 85 25 0 24 -3 25 -55 25 l-55 0 0 90 0 90 -30 0 -30 0 0 -115z" style="fill: rgb(49, 74, 123);"/><path d="M983 774 c-43 -21 -66 -60 -66 -110 0 -52 26 -88 78 -109 149 -61 256 150 110 219 -42 20 -81 20 -122 0z m107 -54 c20 -20 27 -74 12 -96 -13 -20 -52 -35 -72 -29 -75 24 -62 145 15 145 14 0 34 -9 45 -20z" style="fill: rgb(49, 74, 123);"/><path d="M1763 775 c-37 -16 -51 -54 -35 -90 7 -16 28 -29 67 -42 61 -19 70 -29 43 -47 -12 -7 -29 -7 -60 1 -44 12 -57 6 -58 -24 0 -17 77 -36 118 -28 39 7 82 45 82 73 0 27 -39 59 -81 67 -48 9 -63 20 -55 40 5 13 16 16 58 13 44 -2 53 0 56 14 7 35 -76 49 -135 23z" style="fill: rgb(49, 74, 123);"/><path d="M380 664 l0 -116 89 4 c83 3 92 5 119 31 39 37 48 86 26 132 -24 50 -58 65 -154 65 l-80 0 0 -116z m150 61 c26 -13 30 -21 30 -55 0 -51 -20 -70 -76 -70 l-44 0 0 63 c0 35 3 67 7 70 11 12 53 8 83 -8z" style="fill: rgb(49, 74, 123);"/><path d="M670 665 l0 -115 30 0 c27 0 30 3 30 30 0 25 4 30 24 30 17 0 31 -10 43 -30 14 -24 24 -30 51 -30 l33 0 -20 29 c-26 36 -26 37 -1 68 27 35 26 78 -5 108 -22 22 -32 25 -105 25 l-80 0 0 -115z m131 65 c41 -23 16 -70 -38 -70 -31 0 -33 2 -33 33 0 19 3 37 7 40 10 10 42 8 64 -3z" style="fill: rgb(49, 74, 123);"/><path d="M1220 665 l0 -115 30 0 30 0 0 60 c0 33 3 60 8 59 4 0 29 -27 55 -60 35 -43 54 -59 72 -59 l25 0 0 115 0 115 -30 0 c-29 0 -29 -1 -32 -62 l-3 -62 -50 61 c-39 48 -56 62 -77 62 l-28 1 0 -115z" style="fill: rgb(49, 74, 123);"/><path d="M1500 665 l0 -115 90 0 c87 0 90 1 90 23 0 20 -4 22 -57 22 -56 0 -58 1 -61 28 -3 27 -2 27 52 27 49 0 56 2 56 20 0 18 -7 20 -55 20 -52 0 -55 1 -55 25 0 24 3 25 60 25 53 0 60 2 60 20 0 19 -7 20 -90 20 l-90 0 0 -115z" style="fill: rgb(49, 74, 123);"/></g></svg>