<?xml version="1.0" standalone="no"?>
<!DOCTYPE svg PUBLIC "-//W3C//DTD SVG 20010904//EN"
 "http://www.w3.org/TR/2001/REC-SVG-20010904/DTD/svg10.dtd">
<svg version="1.0" xmlns="http://www.w3.org/2000/svg"
 width="626.000000pt" height="626.000000pt" viewBox="0 0 626.000000 626.000000"
 preserveAspectRatio="xMidYMid meet">

<g transform="translate(0.000000,626.000000) scale(0.100000,-0.100000)"
fill="#000000" stroke="none">
<path d="M2967 5492 c-31 -19 -41 -39 -157 -307 -45 -104 -88 -203 -95 -219
-11 -25 -25 -32 -126 -63 -63 -19 -163 -55 -223 -81 l-108 -46 -254 127 c-301
151 -303 151 -391 80 -145 -116 -162 -137 -163 -193 0 -19 35 -154 79 -299
l79 -263 -60 -89 c-51 -76 -156 -266 -169 -306 -2 -7 -128 -42 -279 -78 -151
-36 -285 -72 -297 -80 -39 -26 -51 -56 -73 -181 -31 -178 -45 -159 255 -356
241 -159 245 -162 245 -196 0 -55 29 -235 54 -333 l23 -90 -163 -219 c-90
-121 -168 -228 -174 -239 -24 -45 -12 -92 52 -204 69 -120 89 -137 164 -137
38 0 380 36 513 55 32 4 41 -2 127 -84 50 -49 130 -116 178 -150 100 -73 90
-42 106 -351 18 -351 11 -336 182 -399 124 -45 160 -50 200 -23 14 9 112 107
216 217 l190 201 93 -8 c88 -8 326 -2 354 8 7 3 96 -83 199 -193 102 -109 200
-208 217 -220 45 -32 78 -29 207 18 137 50 157 69 166 161 3 35 10 158 16 273
6 116 13 220 16 231 2 13 41 49 94 89 50 37 131 105 179 151 l88 83 249 -29
c302 -36 342 -37 378 -9 15 12 54 67 86 123 88 148 88 146 -57 343 -64 87
-142 192 -174 234 l-57 75 25 100 c14 54 33 159 42 232 l17 133 244 162 c295
195 279 171 246 361 -29 169 -33 172 -217 215 -74 18 -199 48 -279 67 l-145
35 -47 98 c-26 53 -79 145 -117 203 l-70 105 79 264 c44 145 80 280 80 300 0
46 -21 73 -132 165 -123 103 -109 104 -418 -51 -137 -69 -257 -125 -265 -125
-9 0 -41 13 -73 29 -53 27 -248 96 -332 118 -34 8 -36 12 -146 268 -143 331
-127 315 -312 315 -112 0 -142 -4 -165 -18z m356 -917 c336 -45 631 -190 872
-430 217 -217 365 -496 422 -797 27 -141 24 -430 -5 -564 -67 -312 -196 -550
-416 -769 -221 -220 -455 -349 -757 -417 -90 -20 -131 -23 -309 -23 -229 0
-296 10 -478 71 -445 147 -806 509 -956 955 -59 179 -71 258 -70 484 0 179 3
212 26 310 70 298 202 538 408 745 58 58 142 131 186 163 319 225 701 322
1077 272z"/>
<path d="M3071 4429 c-88 -17 -163 -79 -205 -169 -20 -44 -21 -62 -26 -692
l-5 -647 -45 -29 c-140 -90 -243 -239 -280 -402 -14 -67 -12 -206 6 -280 52
-223 234 -407 459 -465 77 -20 232 -20 310 0 183 47 348 187 424 360 119 270
25 604 -219 770 -63 44 -70 52 -70 82 0 30 -3 33 -30 33 -30 0 -30 -1 -30 -52
l1 -53 60 -35 c119 -68 227 -211 264 -350 19 -72 19 -211 0 -284 -20 -75 -74
-178 -125 -237 -54 -64 -161 -134 -250 -166 -61 -21 -94 -26 -175 -26 -113 -1
-158 10 -264 60 -141 67 -265 225 -301 382 -17 71 -14 202 4 274 37 136 145
279 265 347 l60 35 3 665 3 665 28 48 c51 86 155 132 245 109 57 -16 110 -51
137 -92 15 -23 27 -30 53 -30 l33 0 -16 30 c-57 111 -190 174 -314 149z"/>
<path d="M3304 4195 c-4 -8 -1 -22 6 -30 10 -12 44 -15 179 -15 91 0 172 4
179 9 8 5 12 17 10 27 -3 18 -16 19 -186 22 -156 2 -183 0 -188 -13z"/>
<path d="M3360 4046 l0 -76 30 0 31 0 -3 73 c-3 70 -4 72 -30 75 l-28 3 0 -75z"/>
<path d="M3072 4000 c-63 -38 -62 -32 -62 -643 l0 -554 -39 -12 c-93 -27 -204
-127 -256 -231 -64 -126 -59 -306 12 -429 183 -316 650 -307 811 16 41 82 56
152 49 242 -6 94 -35 173 -91 249 -47 63 -142 134 -207 153 l-38 12 -3 566
c-3 616 -1 595 -61 631 -41 25 -74 25 -115 0z"/>
<path d="M3304 3915 c-4 -8 -1 -22 6 -30 11 -13 42 -15 189 -13 l176 3 0 25 0
25 -183 3 c-156 2 -183 0 -188 -13z"/>
<path d="M3360 3762 l0 -79 30 5 31 4 -3 72 c-3 69 -4 71 -30 74 l-28 3 0 -79z"/>
<path d="M3304 3635 c-4 -8 -1 -22 6 -30 11 -13 42 -15 189 -13 l176 3 0 25 0
25 -183 3 c-156 2 -183 0 -188 -13z"/>
<path d="M3360 3480 l0 -81 28 3 c27 3 27 4 27 78 0 74 0 75 -27 78 l-28 3 0
-81z"/>
<path d="M3310 3355 c-7 -8 -10 -22 -6 -30 5 -13 32 -15 188 -13 l183 3 0 25
0 25 -176 3 c-147 2 -178 0 -189 -13z"/>
<path d="M3360 3194 l0 -75 28 3 c26 3 27 5 30 76 l3 72 -31 0 -30 0 0 -76z"/>
<path d="M3310 3075 c-7 -8 -10 -22 -6 -30 5 -13 32 -15 188 -13 l183 3 0 25
0 25 -176 3 c-147 2 -178 0 -189 -13z"/>
</g>
</svg>
